<?xml version="1.0" encoding="UTF-8"?>
<svg xmlns="http://www.w3.org/2000/svg" xmlns:xlink="http://www.w3.org/1999/xlink" width="90px" height="90px" viewBox="0 0 90 90" version="1.1">
<g id="surface1">
<path style=" stroke:none;fill-rule:evenodd;fill:rgb(0%,0%,0%);fill-opacity:1;" d="M 82.898438 36.328125 L 22.925781 36.328125 L 80.527344 19.644531 C 80.976562 19.511719 81.355469 19.210938 81.578125 18.800781 C 81.804688 18.394531 81.859375 17.914062 81.726562 17.464844 L 78.714844 7.058594 C 77.507812 2.902344 73.640625 0 69.300781 0 C 68.386719 0 67.476562 0.128906 66.59375 0.386719 L 12.511719 16.050781 C 10.011719 16.777344 7.9375 18.441406 6.671875 20.734375 C 5.410156 23.027344 5.113281 25.667969 5.835938 28.171875 L 8.78125 38.335938 L 8.78125 80.21875 C 8.78125 85.613281 13.171875 90 18.5625 90 L 39.6875 90 C 40.65625 90 41.445312 89.214844 41.445312 88.242188 C 41.445312 87.269531 40.65625 86.484375 39.6875 86.484375 L 18.566406 86.484375 C 15.109375 86.484375 12.296875 83.671875 12.296875 80.21875 L 12.296875 56.296875 L 81.140625 56.296875 L 81.140625 80.21875 C 81.140625 83.671875 78.328125 86.484375 74.871094 86.484375 L 53.75 86.484375 C 52.777344 86.484375 51.992188 87.269531 51.992188 88.242188 C 51.992188 89.214844 52.777344 90 53.75 90 L 74.871094 90 C 80.265625 90 84.65625 85.613281 84.65625 80.21875 L 84.65625 38.085938 C 84.65625 37.117188 83.867188 36.328125 82.898438 36.328125 Z M 51.902344 52.78125 L 59.371094 39.84375 L 69.082031 39.84375 L 61.617188 52.78125 Z M 38.125 52.78125 L 45.59375 39.84375 L 55.308594 39.84375 L 47.839844 52.78125 Z M 24.351562 52.78125 L 31.820312 39.84375 L 41.535156 39.84375 L 34.066406 52.78125 Z M 30.890625 30.023438 L 18.382812 18.011719 L 27.753906 15.296875 C 27.820312 15.394531 27.894531 15.484375 27.984375 15.570312 L 40.488281 27.582031 L 31.121094 30.296875 C 31.054688 30.199219 30.976562 30.109375 30.890625 30.023438 Z M 54.445312 7.902344 L 66.949219 19.917969 L 57.578125 22.628906 C 57.511719 22.535156 57.4375 22.441406 57.347656 22.359375 L 44.84375 10.347656 L 54.210938 7.632812 C 54.277344 7.730469 54.355469 7.820312 54.445312 7.902344 Z M 41.214844 11.738281 L 53.71875 23.75 L 44.347656 26.464844 C 44.28125 26.367188 44.207031 26.277344 44.117188 26.191406 L 31.613281 14.179688 L 40.984375 11.464844 C 41.050781 11.5625 41.125 11.652344 41.214844 11.738281 Z M 67.574219 3.761719 C 68.136719 3.597656 68.71875 3.515625 69.300781 3.515625 C 72.085938 3.515625 74.566406 5.375 75.335938 8.039062 L 77.863281 16.753906 L 70.808594 18.796875 C 70.742188 18.703125 70.667969 18.609375 70.578125 18.527344 L 58.074219 6.515625 Z M 9.753906 22.429688 C 10.5625 20.957031 11.890625 19.894531 13.488281 19.429688 L 14.523438 19.128906 C 14.589844 19.226562 14.667969 19.316406 14.753906 19.402344 L 27.261719 31.414062 L 11.738281 35.910156 L 9.214844 27.191406 C 8.75 25.59375 8.941406 23.902344 9.753906 22.429688 Z M 12.296875 39.84375 L 27.761719 39.84375 L 20.292969 52.78125 L 12.296875 52.78125 Z M 65.675781 52.78125 L 73.144531 39.84375 L 81.140625 39.84375 L 81.140625 52.78125 Z M 65.675781 52.78125 "/>
<path style=" stroke:none;fill-rule:evenodd;fill:rgb(0%,0%,0%);fill-opacity:1;" d="M 58.871094 71.210938 C 58.871094 70.582031 58.539062 70.003906 57.992188 69.6875 L 42.550781 60.773438 C 42.007812 60.460938 41.335938 60.460938 40.792969 60.773438 C 40.25 61.085938 39.914062 61.667969 39.914062 62.296875 L 39.914062 80.128906 C 39.914062 80.753906 40.25 81.335938 40.792969 81.648438 C 41.066406 81.804688 41.367188 81.886719 41.671875 81.886719 C 41.976562 81.886719 42.277344 81.804688 42.550781 81.648438 L 57.992188 72.734375 C 58.539062 72.417969 58.871094 71.839844 58.871094 71.210938 Z M 43.429688 77.082031 L 43.429688 65.339844 L 53.597656 71.210938 Z M 43.429688 77.082031 "/>
<path style=" stroke:none;fill-rule:evenodd;fill:rgb(0%,0%,0%);fill-opacity:1;" d="M 46.71875 86.484375 C 45.75 86.484375 44.960938 87.273438 44.960938 88.242188 C 44.960938 89.210938 45.75 90 46.71875 90 C 47.6875 90 48.476562 89.210938 48.476562 88.242188 C 48.476562 87.273438 47.6875 86.484375 46.71875 86.484375 Z M 46.71875 86.484375 "/>
</g>
</svg>
