<?xml version="1.0" encoding="UTF-8"?>
<svg xmlns="http://www.w3.org/2000/svg" xmlns:xlink="http://www.w3.org/1999/xlink" width="90px" height="90px" viewBox="0 0 90 90" version="1.1">
<g id="surface1">
<path style=" stroke:none;fill-rule:nonzero;fill:rgb(0%,0%,0%);fill-opacity:1;" d="M 87.882812 34.753906 L 80.964844 33.25 C 80.363281 31.40625 79.617188 29.609375 78.738281 27.878906 L 82.570312 21.925781 C 83.253906 20.859375 83.101562 19.460938 82.207031 18.566406 L 71.433594 7.792969 C 70.539062 6.898438 69.140625 6.746094 68.074219 7.429688 L 62.121094 11.261719 C 60.390625 10.382812 58.59375 9.636719 56.75 9.035156 L 55.246094 2.117188 C 54.980469 0.882812 53.882812 0 52.621094 0 L 37.378906 0 C 36.117188 0 35.019531 0.882812 34.753906 2.117188 L 33.25 9.035156 C 31.40625 9.636719 29.609375 10.382812 27.878906 11.261719 L 21.925781 7.429688 C 20.859375 6.746094 19.460938 6.898438 18.566406 7.792969 L 7.792969 18.566406 C 6.898438 19.460938 6.746094 20.859375 7.429688 21.925781 L 11.261719 27.878906 C 10.382812 29.609375 9.636719 31.40625 9.035156 33.25 L 2.117188 34.753906 C 0.882812 35.023438 0 36.117188 0 37.378906 L 0 52.621094 C 0 53.882812 0.882812 54.976562 2.117188 55.246094 L 9.035156 56.75 C 9.636719 58.59375 10.382812 60.390625 11.261719 62.121094 L 7.429688 68.074219 C 6.746094 69.140625 6.898438 70.539062 7.792969 71.433594 L 18.566406 82.207031 C 19.460938 83.101562 20.859375 83.253906 21.925781 82.570312 L 27.878906 78.738281 C 29.609375 79.617188 31.40625 80.363281 33.25 80.964844 L 34.753906 87.882812 C 35.019531 89.117188 36.117188 90 37.378906 90 L 52.621094 90 C 53.882812 90 54.980469 89.117188 55.246094 87.882812 L 56.75 80.964844 C 58.59375 80.363281 60.390625 79.617188 62.121094 78.738281 L 68.074219 82.570312 C 69.140625 83.253906 70.539062 83.101562 71.433594 82.207031 L 82.207031 71.433594 C 83.101562 70.539062 83.253906 69.140625 82.570312 68.074219 L 78.738281 62.121094 C 79.617188 60.390625 80.363281 58.59375 80.964844 56.75 L 87.882812 55.246094 C 89.117188 54.976562 90 53.882812 90 52.621094 L 90 37.378906 C 90 36.117188 89.117188 35.023438 87.882812 34.753906 Z M 61.136719 45 C 61.136719 53.898438 53.898438 61.136719 45 61.136719 C 36.101562 61.136719 28.863281 53.898438 28.863281 45 C 28.863281 36.101562 36.101562 28.863281 45 28.863281 C 53.898438 28.863281 61.136719 36.101562 61.136719 45 Z M 61.136719 45 "/>
</g>
</svg>
